# xmcd
#
# Track frame offsets:
#	150
#	23419
#	40765
#	53805
#	70487
#	113269
#	130924
#	167245
#	183182
#	212422
#	223270
#	237777
#
# Disc length: 3359 seconds
#
# Revision: 1
# Processed by: cddbd v1.5.2PL0 Copyright (c) Steve Scherf et al.
# Submitted via: audiograbber 1.82.02
#
DISCID=9d0d1d0c
DTITLE=Csóresz 5 - Csiga biga gyere ki
DYEAR=2003
DGENRE=Gypsy Songs
TTITLE0=Templom elõtt sulott a nap 
TTITLE1=Asszonyom küldök Önnek 100 rozsát
TTITLE2=Trombitás 
TTITLE3=Mindent megbocsájt
TTITLE4=Fodrozik a Tisza vize 
TTITLE5=Sej haj akácfa
TTITLE6=Csigabiga gyere ki
TTITLE7=Rozi 69
TTITLE8=Úgy szeretem a rányima
TTITLE9=Az asszony összetör
TTITLE10=Micsoda nagyszerü dolog
TTITLE11=Szeretlek szeretlek
EXTD=Csóresz 5\n0I. Templom elõtt sulott a nap \n02. szalmaszálból csinállalok 
EXTD=szekeret \n03. Defektet kapoll az autóm kereke \n04. Asszonyom küldök Önne
EXTD=k 100 rozsát \n05. Asszonyom nem szerethetem \n06. Trombitás \n07. Mindent
EXTD=megbocsájt \n08. Fodrozik a Tisza vize \n09. Sárgadinnye levele \n10. Fel
EXTD=szállott a vadgalamb \n11. Házam ereszére rászállott egy\n12. Gyorscsárdás
EXTD=citkom. cickom\n13. Sej haj akácfa... \n14. Csigabiga gyere ki. \n15. S
EXTD=ej ribizli \n16. Aranyesö \n17. Rozi 69. \n18. Úgy szeretem a rányimat \n1
EXTD=9. Táncolj cigány lány \n20. Aranycipõk. aranyruhák \n21. Az asszony össze
EXTD=tör \n22. Micsoda nagyszerü dolog \n23. Szeretlek szeretlek 
EXTT0=
EXTT1=
EXTT2=
EXTT3=
EXTT4=
EXTT5=
EXTT6=
EXTT7=
EXTT8=
EXTT9=
EXTT10=
EXTT11=
PLAYORDER=
